<svg width="16" height="17" viewBox="0 0 16 17" fill="none" xmlns="http://www.w3.org/2000/svg">
<path d="M2.52475 17V13.345C1.72525 12.6083 1.10458 11.7477 0.662748 10.7631C0.220916 9.77854 0 8.74083 0 7.65C0 5.525 0.736386 3.71875 2.20916 2.23125C3.68193 0.74375 5.4703 0 7.57426 0C9.32756 0 10.881 0.520625 12.2345 1.56187C13.5881 2.60313 14.4682 3.95958 14.875 5.63125L15.9691 9.9875C16.0392 10.2567 15.9901 10.501 15.8218 10.7206C15.6535 10.9402 15.429 11.05 15.1485 11.05H13.4653V13.6C13.4653 14.0675 13.3005 14.4677 12.9709 14.8006C12.6413 15.1335 12.245 15.3 11.7822 15.3H10.099V17H8.41584V13.6H11.7822V9.35H14.0545L13.255 6.05625C12.9323 4.76708 12.245 3.71875 11.1931 2.91125C10.1411 2.10375 8.93482 1.7 7.57426 1.7C5.94719 1.7 4.55858 2.27375 3.40842 3.42125C2.25825 4.56875 1.68317 5.96417 1.68317 7.6075C1.68317 8.4575 1.85499 9.265 2.19864 10.03C2.54229 10.795 3.0297 11.475 3.66089 12.07L4.20792 12.58V17H2.52475ZM7.57426 11.9C7.81271 11.9 8.01258 11.8185 8.17389 11.6556C8.33519 11.4927 8.41584 11.2908 8.41584 11.05C8.41584 10.8092 8.33519 10.6073 8.17389 10.4444C8.01258 10.2815 7.81271 10.2 7.57426 10.2C7.33581 10.2 7.13593 10.2815 6.97463 10.4444C6.81332 10.6073 6.73267 10.8092 6.73267 11.05C6.73267 11.2908 6.81332 11.4927 6.97463 11.6556C7.13593 11.8185 7.33581 11.9 7.57426 11.9ZM6.94307 9.18H8.22649C8.22649 8.82583 8.27207 8.53896 8.36324 8.31938C8.45441 8.09979 8.64026 7.83417 8.92079 7.5225C9.17327 7.23917 9.41873 6.95229 9.65718 6.66188C9.89563 6.37146 10.0149 5.9925 10.0149 5.525C10.0149 4.93 9.78692 4.42708 9.33106 4.01625C8.87521 3.60542 8.31064 3.4 7.63738 3.4C7.07632 3.4 6.56786 3.56292 6.112 3.88875C5.65615 4.21458 5.33705 4.63958 5.1547 5.16375L6.31188 5.6525C6.41007 5.34083 6.58189 5.08938 6.82735 4.89813C7.07281 4.70687 7.34282 4.61125 7.63738 4.61125C7.94596 4.61125 8.20194 4.69625 8.40532 4.86625C8.6087 5.03625 8.7104 5.25583 8.7104 5.525C8.7104 5.8225 8.62273 6.08813 8.4474 6.32188C8.27207 6.55562 8.06518 6.79292 7.82673 7.03375C7.5462 7.33125 7.32879 7.62875 7.1745 7.92625C7.02021 8.22375 6.94307 8.64167 6.94307 9.18Z" fill="#2D2D2D"/>
</svg>
