<svg width="18" height="18" viewBox="0 0 18 18" fill="none" xmlns="http://www.w3.org/2000/svg">
<path d="M5.2499 10.5C5.0374 10.5 4.85928 10.4281 4.71553 10.2844C4.57178 10.1406 4.4999 9.9625 4.4999 9.75C4.4999 9.5375 4.57178 9.35938 4.71553 9.21563C4.85928 9.07188 5.0374 9 5.2499 9C5.4624 9 5.64053 9.07188 5.78428 9.21563C5.92803 9.35938 5.9999 9.5375 5.9999 9.75C5.9999 9.9625 5.92803 10.1406 5.78428 10.2844C5.64053 10.4281 5.4624 10.5 5.2499 10.5ZM15.5249 13.3875L14.1374 12H14.9999V3H5.1374L3.6374 1.5H14.9999C15.4124 1.5 15.7655 1.64687 16.0593 1.94063C16.353 2.23438 16.4999 2.5875 16.4999 3V12C16.4999 12.325 16.4093 12.6094 16.228 12.8531C16.0468 13.0969 15.8124 13.275 15.5249 13.3875ZM10.3874 8.25L8.8874 6.75H13.4999V8.25H10.3874ZM15.3749 17.475L11.3624 13.5H4.4999L1.4999 16.5V3.6L0.524902 2.625L1.5749 1.575L16.4249 16.425L15.3749 17.475ZM5.2499 8.25C5.0374 8.25 4.85928 8.17813 4.71553 8.03438C4.57178 7.89063 4.4999 7.7125 4.4999 7.5C4.4999 7.2875 4.57178 7.10938 4.71553 6.96563C4.85928 6.82188 5.0374 6.75 5.2499 6.75C5.4624 6.75 5.64053 6.82188 5.78428 6.96563C5.92803 7.10938 5.9999 7.2875 5.9999 7.5C5.9999 7.7125 5.92803 7.89063 5.78428 8.03438C5.64053 8.17813 5.4624 8.25 5.2499 8.25ZM8.1374 6L7.4999 5.3625V4.5H13.4999V6H8.1374ZM2.9999 5.1V12.8438L3.8624 12H9.8999L2.9999 5.1Z" fill="#2D2D2D"/>
</svg>
