<svg width="19" height="19" viewBox="0 0 19 19" fill="none" xmlns="http://www.w3.org/2000/svg">
<g clip-path="url(#clip0_761_242)">
<path d="M9.49984 8.70837C10.3707 8.70837 11.1162 8.3983 11.7363 7.77817C12.3564 7.15803 12.6665 6.41254 12.6665 5.54171V3.16671H6.33317V5.54171C6.33317 6.41254 6.64324 7.15803 7.26338 7.77817C7.88352 8.3983 8.629 8.70837 9.49984 8.70837ZM3.1665 17.4167V15.8334H4.74984V13.4584C4.74984 12.6535 4.93786 11.8981 5.3139 11.1922C5.68994 10.4863 6.21442 9.92226 6.88734 9.50004C6.21442 9.07782 5.68994 8.51376 5.3139 7.80785C4.93786 7.10195 4.74984 6.34657 4.74984 5.54171V3.16671H3.1665V1.58337H15.8332V3.16671H14.2498V5.54171C14.2498 6.34657 14.0618 7.10195 13.6858 7.80785C13.3097 8.51376 12.7853 9.07782 12.1123 9.50004C12.7853 9.92226 13.3097 10.4863 13.6858 11.1922C14.0618 11.8981 14.2498 12.6535 14.2498 13.4584V15.8334H15.8332V17.4167H3.1665Z" fill="#2D2D2D"/>
</g>
<defs>
<clipPath id="clip0_761_242">
<rect width="19" height="19" fill="white"/>
</clipPath>
</defs>
</svg>
