<svg width="120" height="21" viewBox="0 0 120 21" fill="none" xmlns="http://www.w3.org/2000/svg">
<path d="M10.5 6.10352e-05L12.8574 7.25538H20.4861L14.3143 11.7394L16.6717 18.9947L10.5 14.5107L4.32825 18.9947L6.68565 11.7394L0.513906 7.25538H8.1426L10.5 6.10352e-05Z" fill="#F9BC15"/>
<path d="M33.6006 6.10352e-05L35.958 7.25538H43.5867L37.4149 11.7394L39.7723 18.9947L33.6006 14.5107L27.4288 18.9947L29.7862 11.7394L23.6145 7.25538H31.2432L33.6006 6.10352e-05Z" fill="#F9BC15"/>
<path d="M58.8003 6.10352e-05L61.1577 7.25538H68.7864L62.6146 11.7394L64.972 18.9947L58.8003 14.5107L52.6285 18.9947L54.9859 11.7394L48.8142 7.25538H56.4429L58.8003 6.10352e-05Z" fill="#F9BC15"/>
<path d="M84 6.10352e-05L86.3574 7.25538H93.9861L87.8143 11.7394L90.1717 18.9947L84 14.5107L77.8283 18.9947L80.1857 11.7394L74.0139 7.25538H81.6426L84 6.10352e-05Z" fill="#D9D9D9"/>
<path d="M109.2 6.10352e-05L111.557 7.25538H119.186L113.014 11.7394L115.371 18.9947L109.2 14.5107L103.028 18.9947L105.385 11.7394L99.2136 7.25538H106.842L109.2 6.10352e-05Z" fill="#D9D9D9"/>
</svg>
