<svg width="44" height="46" viewBox="0 0 44 46" fill="none" xmlns="http://www.w3.org/2000/svg">
<path d="M4.66665 45.6667V21.8333H0.333313V8.83332H11.6C11.4194 8.50832 11.3021 8.16527 11.2479 7.80416C11.1937 7.44305 11.1666 7.06388 11.1666 6.66666C11.1666 4.8611 11.7986 3.32638 13.0625 2.06249C14.3264 0.798601 15.8611 0.166656 17.6666 0.166656C18.4972 0.166656 19.2736 0.320129 19.9958 0.627073C20.718 0.934018 21.3861 1.35832 22 1.89999C22.6139 1.32221 23.2819 0.888879 24.0041 0.59999C24.7264 0.311101 25.5028 0.166656 26.3333 0.166656C28.1389 0.166656 29.6736 0.798601 30.9375 2.06249C32.2014 3.32638 32.8333 4.8611 32.8333 6.66666C32.8333 7.06388 32.7972 7.43402 32.725 7.77707C32.6528 8.12013 32.5444 8.47221 32.4 8.83332H43.6666V21.8333H39.3333V45.6667H4.66665ZM26.3333 4.49999C25.7194 4.49999 25.2048 4.70763 24.7896 5.12291C24.3743 5.53818 24.1666 6.05277 24.1666 6.66666C24.1666 7.28055 24.3743 7.79513 24.7896 8.21041C25.2048 8.62568 25.7194 8.83332 26.3333 8.83332C26.9472 8.83332 27.4618 8.62568 27.8771 8.21041C28.2923 7.79513 28.5 7.28055 28.5 6.66666C28.5 6.05277 28.2923 5.53818 27.8771 5.12291C27.4618 4.70763 26.9472 4.49999 26.3333 4.49999ZM15.5 6.66666C15.5 7.28055 15.7076 7.79513 16.1229 8.21041C16.5382 8.62568 17.0528 8.83332 17.6666 8.83332C18.2805 8.83332 18.7951 8.62568 19.2104 8.21041C19.6257 7.79513 19.8333 7.28055 19.8333 6.66666C19.8333 6.05277 19.6257 5.53818 19.2104 5.12291C18.7951 4.70763 18.2805 4.49999 17.6666 4.49999C17.0528 4.49999 16.5382 4.70763 16.1229 5.12291C15.7076 5.53818 15.5 6.05277 15.5 6.66666ZM4.66665 13.1667V17.5H19.8333V13.1667H4.66665ZM19.8333 41.3333V21.8333H8.99998V41.3333H19.8333ZM24.1666 41.3333H35V21.8333H24.1666V41.3333ZM39.3333 17.5V13.1667H24.1666V17.5H39.3333Z" fill="#FBBC12"/>
</svg>
