<svg width="59" height="11" viewBox="0 0 59 11" fill="none" xmlns="http://www.w3.org/2000/svg">
<path d="M5.17545 0L6.33741 3.57615H10.0976L7.05554 5.78633L8.21751 9.36248L5.17545 7.1523L2.1334 9.36248L3.29536 5.78633L0.253304 3.57615H4.01349L5.17545 0Z" fill="#94A3B1"/>
<path d="M16.5617 0L17.7236 3.57615H21.4838L18.4418 5.78633L19.6037 9.36248L16.5617 7.1523L13.5196 9.36248L14.6816 5.78633L11.6395 3.57615H15.3997L16.5617 0Z" fill="#94A3B1"/>
<path d="M28.9826 0L30.1445 3.57615H33.9047L30.8627 5.78633L32.0246 9.36248L28.9826 7.1523L25.9405 9.36248L27.1025 5.78633L24.0604 3.57615H27.8206L28.9826 0Z" fill="#94A3B1"/>
<path d="M41.4035 0L42.5654 3.57615H46.3256L43.2836 5.78633L44.4455 9.36248L41.4035 7.1523L38.3614 9.36248L39.5234 5.78633L36.4813 3.57615H40.2415L41.4035 0Z" fill="#D9D9D9"/>
<path d="M53.8244 0L54.9863 3.57615H58.7465L55.7045 5.78633L56.8664 9.36248L53.8244 7.1523L50.7823 9.36248L51.9443 5.78633L48.9022 3.57615H52.6624L53.8244 0Z" fill="#D9D9D9"/>
</svg>
