<svg width="30" height="30" viewBox="0 0 30 30" fill="none" xmlns="http://www.w3.org/2000/svg">
<path d="M5.99976 6.00012C4.3429 6.00012 2.99976 7.34327 2.99976 9.00012V10.5001H26.9998V9.00012C26.9998 7.34327 25.6566 6.00012 23.9998 6.00012H5.99976Z" fill="#545454"/>
<path fill-rule="evenodd" clip-rule="evenodd" d="M26.9998 13.5001H2.99976V21.0001C2.99976 22.657 4.3429 24.0001 5.99976 24.0001H23.9998C25.6566 24.0001 26.9998 22.657 26.9998 21.0001V13.5001ZM5.99976 19.5001C5.99976 18.6717 6.67133 18.0001 7.49976 18.0001H8.99976C9.82818 18.0001 10.4998 18.6717 10.4998 19.5001C10.4998 20.3286 9.82818 21.0001 8.99976 21.0001H7.49976C6.67133 21.0001 5.99976 20.3286 5.99976 19.5001ZM13.4998 18.0001C12.6713 18.0001 11.9998 18.6717 11.9998 19.5001C11.9998 20.3286 12.6713 21.0001 13.4998 21.0001H14.9998C15.8282 21.0001 16.4998 20.3286 16.4998 19.5001C16.4998 18.6717 15.8282 18.0001 14.9998 18.0001H13.4998Z" fill="#545454"/>
</svg>
