<svg width="9" height="14" viewBox="0 0 9 14" fill="none" xmlns="http://www.w3.org/2000/svg">
<path d="M3.1875 9.44425V9.32955C3.19555 8.58097 3.27 7.98532 3.41087 7.54261C3.55575 7.0999 3.76101 6.74171 4.02663 6.46804C4.29226 6.19437 4.61222 5.94484 4.98651 5.71946C5.22798 5.56652 5.44531 5.39548 5.63849 5.20632C5.83168 5.01716 5.98461 4.79983 6.0973 4.55433C6.20999 4.30883 6.26634 4.03717 6.26634 3.73935C6.26634 3.38116 6.18182 3.07126 6.01278 2.80966C5.84375 2.54806 5.61837 2.34683 5.33665 2.20597C5.05895 2.06108 4.74905 1.98864 4.40696 1.98864C4.09706 1.98864 3.80125 2.05303 3.51953 2.18182C3.23781 2.31061 3.00438 2.51184 2.81925 2.78551C2.63411 3.05516 2.52746 3.40329 2.49929 3.8299H0.664062C0.692235 3.10547 0.875355 2.49373 1.21342 1.99467C1.55149 1.4916 1.99822 1.11127 2.55362 0.853692C3.11304 0.596117 3.73082 0.467329 4.40696 0.467329C5.14749 0.467329 5.79545 0.606179 6.35085 0.883878C6.90625 1.15755 7.33688 1.5419 7.64276 2.03693C7.95265 2.52794 8.1076 3.10144 8.1076 3.75746C8.1076 4.20821 8.03717 4.6147 7.89631 4.97692C7.75545 5.33511 7.55421 5.65507 7.29261 5.93679C7.03504 6.21851 6.72514 6.46804 6.36293 6.68537C6.02083 6.89867 5.74313 7.12003 5.52983 7.34943C5.32055 7.57883 5.16761 7.8505 5.07102 8.16442C4.97443 8.47834 4.92211 8.86671 4.91406 9.32955V9.44425H3.1875ZM4.09908 13.1147C3.76906 13.1147 3.48532 12.998 3.24787 12.7646C3.01042 12.5271 2.89169 12.2414 2.89169 11.9073C2.89169 11.5773 3.01042 11.2956 3.24787 11.0621C3.48532 10.8247 3.76906 10.706 4.09908 10.706C4.42507 10.706 4.70679 10.8247 4.94425 11.0621C5.18572 11.2956 5.30646 11.5773 5.30646 11.9073C5.30646 12.1287 5.25012 12.3319 5.13743 12.517C5.02876 12.6982 4.88388 12.843 4.70277 12.9517C4.52166 13.0604 4.32043 13.1147 4.09908 13.1147Z" fill="#4D4D4D"/>
</svg>
